<?xml version="1.0" encoding="UTF-8"?>
<!DOCTYPE svg PUBLIC "-//W3C//DTD SVG 1.1//EN" "http://www.w3.org/Graphics/SVG/1.1/DTD/svg11.dtd">
<!-- Creator: CorelDRAW X7 -->
<svg xmlns="http://www.w3.org/2000/svg" xml:space="preserve" width="0.0933307in" height="0.166661in" version="1.1" style="shape-rendering:geometricPrecision; text-rendering:geometricPrecision; image-rendering:optimizeQuality; fill-rule:evenodd; clip-rule:evenodd"
viewBox="0 0 93 167"
 xmlns:xlink="http://www.w3.org/1999/xlink">
 <defs>
  <style type="text/css">
   <![CDATA[
    .fil0 {fill:black}
   ]]>
  </style>
 </defs>
 <g id="Layer_x0020_1">
  <metadata id="CorelCorpID_0Corel-Layer"/>
  <path class="fil0" d="M94 57c-1,-1 -2,-1 -3,-1l-33 0 33 -52c0,-1 0,-2 0,-3 -1,0 -2,-1 -3,-1l-44 0c-1,0 -2,1 -3,2l-41 83c-1,1 -1,2 0,3 0,0 1,1 2,1l29 0 -31 74c-1,1 0,3 1,3 0,1 1,1 1,1 1,0 2,-1 2,-1l89 -106c1,-1 1,-2 1,-3z"/>
 </g>
</svg>
